REM DIRINDEX 1\2,1\3,1\4,1\5
REM DIRNAME folder01,folder02,folder03,folder04,folder05
TITLE ""
FILE "104.mp3" MP3
  TRACK 01 AUDIO
    TITLE "0:"
    INDEX 01 00:00:00
  TRACK 02 AUDIO
    TITLE "2:cjc046_2297"
    INDEX 01 00:00:13
  TRACK 03 AUDIO
    TITLE "0:"
    INDEX 01 00:01:22
  TRACK 04 AUDIO
    TITLE "3:cjc046_2298"
    INDEX 01 00:01:48
  TRACK 05 AUDIO
    TITLE "0:"
    INDEX 01 00:02:55
  TRACK 06 AUDIO
    TITLE "4:cjc046_2299"
    INDEX 01 00:02:69
  TRACK 07 AUDIO
    TITLE "0:"
    INDEX 01 00:04:03
  TRACK 08 AUDIO
    TITLE "2:cjc046_2300"
    INDEX 01 00:05:14
  TRACK 09 AUDIO
    TITLE "0:"
    INDEX 01 00:06:20
  TRACK 10 AUDIO
    TITLE "3:cjc046_2301"
    INDEX 01 00:06:43
  TRACK 11 AUDIO
    TITLE "0:"
    INDEX 01 00:07:64
  TRACK 12 AUDIO
    TITLE "4:cjc046_2302"
    INDEX 01 00:07:74
  TRACK 13 AUDIO
    TITLE "0:"
    INDEX 01 00:09:04
  TRACK 14 AUDIO
    TITLE "2:cjc046_2303"
    INDEX 01 00:10:10
  TRACK 15 AUDIO
    TITLE "0:"
    INDEX 01 00:11:29
  TRACK 16 AUDIO
    TITLE "3:cjc046_2304"
    INDEX 01 00:11:54
  TRACK 17 AUDIO
    TITLE "0:"
    INDEX 01 00:12:65
  TRACK 18 AUDIO
    TITLE "4:cjc046_2305"
    INDEX 01 00:13:00
  TRACK 19 AUDIO
    TITLE "0:"
    INDEX 01 00:14:19
  TRACK 20 AUDIO
    TITLE "2:cjc046_2306"
    INDEX 01 00:15:30
  TRACK 21 AUDIO
    TITLE "0:"
    INDEX 01 00:16:44
  TRACK 22 AUDIO
    TITLE "3:cjc046_2307"
    INDEX 01 00:16:69
  TRACK 23 AUDIO
    TITLE "0:"
    INDEX 01 00:18:74
  TRACK 24 AUDIO
    TITLE "4:cjc046_2308"
    INDEX 01 00:19:16
  TRACK 25 AUDIO
    TITLE "0:"
    INDEX 01 00:20:32
  TRACK 26 AUDIO
    TITLE "2:cjc046_2309"
    INDEX 01 00:21:39
  TRACK 27 AUDIO
    TITLE "0:"
    INDEX 01 00:22:50
  TRACK 28 AUDIO
    TITLE "3:cjc046_2310"
    INDEX 01 00:23:06
  TRACK 29 AUDIO
    TITLE "0:"
    INDEX 01 00:24:08
  TRACK 30 AUDIO
    TITLE "4:cjc046_2311"
    INDEX 01 00:24:24
  TRACK 31 AUDIO
    TITLE "0:"
    INDEX 01 00:25:37
  TRACK 32 AUDIO
    TITLE "2:cjc046_2312"
    INDEX 01 00:26:46
  TRACK 33 AUDIO
    TITLE "0:"
    INDEX 01 00:27:53
  TRACK 34 AUDIO
    TITLE "3:cjc046_2313"
    INDEX 01 00:28:02
  TRACK 35 AUDIO
    TITLE "0:"
    INDEX 01 00:29:01
  TRACK 36 AUDIO
    TITLE "4:cjc046_2314"
    INDEX 01 00:29:15
  TRACK 37 AUDIO
    TITLE "0:"
    INDEX 01 00:30:22
  TRACK 38 AUDIO
    TITLE "2:cjc046_2315"
    INDEX 01 00:31:24
  TRACK 39 AUDIO
    TITLE "0:"
    INDEX 01 00:32:31
  TRACK 40 AUDIO
    TITLE "3:cjc046_2316"
    INDEX 01 00:32:60
  TRACK 41 AUDIO
    TITLE "0:"
    INDEX 01 00:33:56
  TRACK 42 AUDIO
    TITLE "4:cjc046_2317"
    INDEX 01 00:33:66
  TRACK 43 AUDIO
    TITLE "0:"
    INDEX 01 00:34:73
  TRACK 44 AUDIO
    TITLE "2:cjc046_2318"
    INDEX 01 00:36:09
  TRACK 45 AUDIO
    TITLE "0:"
    INDEX 01 00:37:26
  TRACK 46 AUDIO
    TITLE "3:cjc046_2319"
    INDEX 01 00:37:54
  TRACK 47 AUDIO
    TITLE "0:"
    INDEX 01 00:39:68
  TRACK 48 AUDIO
    TITLE "4:cjc046_2320"
    INDEX 01 00:40:05
  TRACK 49 AUDIO
    TITLE "0:"
    INDEX 01 00:41:22
  TRACK 50 AUDIO
    TITLE "2:cjc046_2321"
    INDEX 01 00:42:33
  TRACK 51 AUDIO
    TITLE "0:"
    INDEX 01 00:43:35
  TRACK 52 AUDIO
    TITLE "3:cjc046_2322"
    INDEX 01 00:43:60
  TRACK 53 AUDIO
    TITLE "0:"
    INDEX 01 00:44:52
  TRACK 54 AUDIO
    TITLE "4:cjc046_2323"
    INDEX 01 00:44:67
  TRACK 55 AUDIO
    TITLE "0:"
    INDEX 01 00:45:67
  TRACK 56 AUDIO
    TITLE "2:cjc046_2324"
    INDEX 01 00:47:05
  TRACK 57 AUDIO
    TITLE "0:"
    INDEX 01 00:48:18
  TRACK 58 AUDIO
    TITLE "3:cjc046_2325"
    INDEX 01 00:48:44
  TRACK 59 AUDIO
    TITLE "0:"
    INDEX 01 00:49:69
  TRACK 60 AUDIO
    TITLE "4:cjc046_2326"
    INDEX 01 00:50:15
  TRACK 61 AUDIO
    TITLE "0:"
    INDEX 01 00:51:28
